<?xml version="1.0" encoding="UTF-8" standalone="no" ?>
<!DOCTYPE svg PUBLIC "-//W3C//DTD SVG 1.1//EN" "http://www.w3.org/Graphics/SVG/1.1/DTD/svg11.dtd">
<svg xmlns="http://www.w3.org/2000/svg" xmlns:xlink="http://www.w3.org/1999/xlink" version="1.1" width="1280" height="1024" viewBox="0 0 1280 1024" xml:space="preserve">
<desc>Created with Fabric.js 5.3.0</desc>
<defs>
</defs>
<g transform="matrix(1 0 0 1 640 512)" id="background-logo"  >
<rect style="stroke: none; stroke-width: 0; stroke-dasharray: none; stroke-linecap: butt; stroke-dashoffset: 0; stroke-linejoin: miter; stroke-miterlimit: 4; fill: rgb(255,255,255); fill-opacity: 0; fill-rule: nonzero; opacity: 1;"  paint-order="stroke"  x="-640" y="-512" rx="0" ry="0" width="1280" height="1024" />
</g>
<g transform="matrix(1.9211538461538462 0 0 1.9211538461538462 639.1573886639676 511.3259109311742)" id="shape-57110c7a-cfa2-478e-9f92-46c419aa1743"  >
<g style=""  paint-order="stroke"   >
		<g transform="matrix(1 0 0 1 0 0)" id="Layer_1"  >
<rect style="stroke: none; stroke-width: 0; stroke-dasharray: none; stroke-linecap: butt; stroke-dashoffset: 0; stroke-linejoin: miter; stroke-miterlimit: 4; fill: rgb(36,76,84); fill-rule: nonzero; opacity: 1;"  paint-order="stroke"  x="-100" y="-100" rx="40" ry="40" width="200" height="200" />
</g>
</g>
</g>
<g transform="matrix(0.8905573290976531 0 0 0.8905573290976531 639.1573886639676 468.257763012591)" id="shape-4da6572a-0476-4881-bda7-5993cfd9b8f9"  >
<g style=""  paint-order="stroke"   >
		<g transform="matrix(1 0 0 1 0 0)" id="path-01"  >
<linearGradient id="SVGID_60410" gradientUnits="userSpaceOnUse" gradientTransform="matrix(1 0 0 1 -0.00000768580873966584 0.00001000000000317414)"  x1="0" y1="0" x2="0" y2="250">
<stop offset="0%" style="stop-color:rgb(248,77,158);stop-opacity: 1"/>
<stop offset="100%" style="stop-color:rgb(255,116,117);stop-opacity: 1"/>
</linearGradient>
<path style="stroke: none; stroke-width: 1; stroke-dasharray: none; stroke-linecap: butt; stroke-dashoffset: 0; stroke-linejoin: miter; stroke-miterlimit: 4; fill: url(#SVGID_60410); fill-rule: nonzero; opacity: 1;"  paint-order="stroke"  transform=" translate(-55.509046179638474, -125.00000999999999)" d="M 33.81121 80.60137 L 38.4951 95.26570000000001 C 38.73023 96.00201000000001 38.84827 96.72895000000001 38.84733 97.42872000000001 C 38.83451 105.83929 33.77104 115.91447000000001 24.92978 129.93113 C 25.825870000000002 131.03618 26.36469 132.44281 26.36469 133.97637 C 26.36469 137.52723 23.48614 140.40577 19.93529 140.40577 C 16.384439999999998 140.40577 13.505889999999997 137.52722 13.505889999999997 133.97637 C 13.505889999999997 130.42552 16.384439999999998 127.54697 19.93529 127.54697 C 20.56006 127.54697 21.16218 127.64053 21.733259999999998 127.80675000000001 C 29.98511 114.70731 34.998459999999994 104.88600000000001 35.010279999999995 97.42216 C 35.011219999999994 97.12145000000001 34.95314 96.7889 34.839789999999994 96.43292000000001 L 29.873929999999994 80.88427000000001 L 29.948869999999996 80.42806000000002 C 35.28178 48.147190000000016 66.40789 23.22098000000002 95.36863 16.931330000000017 C 95.56389 13.556060000000016 98.35485 10.877050000000017 101.77906999999999 10.877050000000017 C 105.32999 10.877050000000017 108.20846999999999 13.755600000000017 108.20846999999999 17.306450000000016 C 108.20846999999999 20.857300000000016 105.32997999999999 23.735850000000017 101.77906999999999 23.735850000000017 C 99.45702999999999 23.735850000000017 97.42867 22.500650000000018 96.29861999999999 20.655720000000017 C 83.78612999999999 23.341460000000016 70.91144999999999 29.693230000000014 59.957639999999984 38.733910000000016 C 45.73827999999998 50.46706000000002 36.46790999999998 65.31969000000001 33.81120999999999 80.60136000000001 Z M 109.09637 30.77599 C 92.08353 30.77599 71.05190999999999 41.50304 57.95199999999999 56.86247 L 57.87424999999999 56.958960000000005 C 51.24278999999999 65.83787000000001 48.016699999999986 82.08395 48.25212999999999 105.26793 C 46.21568999999999 106.34681 44.82685999999999 108.48541 44.82685999999999 110.95049 C 44.82685999999999 114.50141 47.705409999999986 117.37995000000001 51.25625999999999 117.37995000000001 C 54.807109999999994 117.37995000000001 57.68565999999999 114.5014 57.68565999999999 110.95049 C 57.68565999999999 107.68248 55.24540999999999 104.99018000000001 52.08887999999999 104.58104 C 51.94502999999999 82.912 54.96174999999999 67.31821 60.91221999999999 59.30465 C 73.33859 44.76397 93.14302999999998 34.61304 109.09637 34.61304 C 110.15587 34.61304 111.01489 33.75401 111.01489 32.69452 C 111.01489 31.635029999999993 110.15585999999999 30.775999999999996 109.09637 30.775999999999996 Z M 110.05375 199.96009 C 102.48925999999999 195.6125 94.07324 193.03355000000002 85.12232 192.30192 C 79.92039 191.65086 70.4786 192.71690999999998 70.10576 192.75907 L 67.69168 192.99982 C 61.38622000000001 193.63308 55.624100000000006 189.25177 54.565540000000006 183.03062 C 54.256400000000006 181.2114 53.95008000000001 162.73624999999998 53.747730000000004 150.51128 C 53.68169 146.54174 53.62068000000001 142.87226 53.565000000000005 139.97147 C 55.973690000000005 139.04301 57.685660000000006 136.71236000000002 57.685660000000006 133.97638 C 57.685660000000006 130.42552 54.80711000000001 127.54698 51.256260000000005 127.54698 C 47.70541 127.54698 44.82686 130.42553 44.82686 133.97638 C 44.82686 137.00095000000002 46.91816 139.53077000000002 49.73172 140.21632 C 49.7864 143.08080999999999 49.84624 146.68249 49.910700000000006 150.57497999999998 C 50.202040000000004 168.1349 50.451220000000006 181.72193 50.78284000000001 183.67417999999998 C 52.17864000000001 191.87568 59.767480000000006 197.65091999999999 68.14791000000001 196.81062999999997 L 70.51328000000001 196.57455999999996 C 70.60696000000002 196.56331999999998 79.90168000000001 195.51412999999997 84.72796000000001 196.11740999999995 C 93.19269000000001 196.81155999999996 101.07100000000001 199.22376999999994 108.14274 203.28750999999994 C 108.44345 203.46080999999995 108.77226 203.54230999999993 109.09638000000001 203.54230999999993 C 109.76056000000001 203.54230999999993 110.40693000000002 203.19663999999992 110.76197 202.57929999999993 C 111.28938000000001 201.66125999999994 110.97275 200.48840999999993 110.05377 199.96006999999994 Z M 65.40688 168.3588 C 66.84577 176.10128 71.747 180.52474 78.87026 180.52381 C 78.93864 180.52381 79.0089 180.52381 79.07729 180.52286999999998 L 79.05481 178.60434999999998 L 79.17659 180.52193999999997 C 89.39685 180.40671999999998 99.19274 182.35146999999998 108.25795000000001 186.19319999999996 C 108.50245000000001 186.29624999999996 108.75632 186.34588999999997 109.00550000000001 186.34588999999997 C 109.75305000000002 186.34588999999997 110.46313 185.90653999999998 110.77320000000002 185.17491999999996 C 111.18632000000002 184.19972999999996 110.73104000000002 183.07372999999995 109.75492000000001 182.65966999999995 C 100.20446000000001 178.61278999999996 89.88772000000002 176.60058999999995 79.14661000000001 176.68489999999994 L 79.1616 178.60341999999994 L 79.03232000000001 176.68582999999995 C 78.97518000000001 176.68676999999997 78.91897000000002 176.68676999999997 78.86370000000001 176.68676999999997 C 73.55123 176.68676999999997 70.29311000000001 173.64972999999998 69.17928 167.65809999999996 C 66.68932000000001 154.25934999999996 65.19422 110.10990999999996 65.09024000000001 90.19961999999997 C 65.05663000000001 83.74538999999997 66.90519 77.52681999999997 70.34112 72.32617999999997 C 71.00606 72.55884999999996 71.71783 72.69175999999996 72.46216 72.69175999999996 C 76.01302 72.69175999999996 78.89156 69.81320999999996 78.89156 66.26235999999996 C 78.89156 62.71150999999996 76.01301 59.83295999999996 72.46216 59.83295999999996 C 68.91131 59.83295999999996 66.03276 62.711509999999954 66.03276 66.26235999999996 C 66.03276 67.67220999999996 66.49184 68.97187999999996 67.26135 70.03165999999996 C 63.33196999999999 75.89899999999996 61.21455999999999 82.92945999999996 61.25319999999999 90.22023999999996 C 61.35717999999999 110.24949999999995 62.875699999999995 154.73899999999998 65.40687999999999 168.35881999999998 Z M 109.09637 46.16352 C 104.97032999999999 46.16352 100.40459 47.07758 95.66740999999999 48.80524 C 94.48812 47.42279 92.73646 46.543389999999995 90.77695999999999 46.543389999999995 C 87.22609999999999 46.543389999999995 84.34755999999999 49.42193999999999 84.34755999999999 52.972849999999994 C 84.34755999999999 56.523759999999996 87.22610999999999 59.402249999999995 90.77695999999999 59.402249999999995 C 94.32780999999999 59.402249999999995 97.20635999999999 56.5237 97.20635999999999 52.972849999999994 C 97.20635999999999 52.76248 97.19465 52.55492999999999 97.17491999999999 52.349779999999996 C 101.41928999999999 50.82933 105.52500999999998 50.000569999999996 109.09636999999998 50.000569999999996 C 110.15586999999998 50.000569999999996 111.01488999999998 49.14154 111.01488999999998 48.082049999999995 C 111.01488999999998 47.02255999999999 110.15585999999998 46.163529999999994 109.09636999999998 46.163529999999994 Z M 109.09637 61.55104 C 101.87192999999999 61.55104 89.52613 67.26726 81.36958999999999 76.83271 C 78.29320999999999 80.44024 76.61355999999999 85.16629 76.64072999999999 90.13965 C 76.6813 97.8535 77.15543 113.32931 77.54096999999999 124.82452 C 75.37735999999998 125.8596 73.87903999999999 128.06255000000002 73.87903999999999 130.62107 C 73.87903999999999 134.17193 76.75759 137.05047 80.30843999999999 137.05047 C 83.85928999999999 137.05047 86.73783999999999 134.17192 86.73783999999999 130.62107 C 86.73783999999999 127.42993 84.41058999999998 124.78915 81.36219 124.28534 C 80.97957 112.85851000000001 80.5171 97.70079000000001 80.47775 90.11903000000001 C 80.4562 86.06465000000001 81.80891 82.23042000000001 84.28857 79.32266000000001 C 91.39591 70.98720000000002 102.85365 65.38808000000002 109.09634000000001 65.38808000000002 C 110.15584000000001 65.38808000000002 111.01486000000001 64.52905000000001 111.01486000000001 63.469560000000016 C 111.01486000000001 62.41007000000002 110.15583000000001 61.551040000000015 109.09634000000001 61.551040000000015 Z M 109.62565 150.05508 C 108.32164999999999 149.68224 106.98580999999999 149.32814 105.65370999999999 149.00214 C 100.73937 147.80025 97.14869999999999 143.37116 96.92012 138.22919 C 96.61005 131.23707 96.3796 94.47412999999999 96.37773 94.11534999999998 C 96.37773 91.11923999999998 97.35614 88.51686999999998 99.22238 86.44576999999998 C 100.30934 87.28699999999998 101.66907 87.79267999999998 103.14988 87.79267999999998 C 106.70074 87.79267999999998 109.57928 84.91412999999997 109.57928 81.36327999999997 C 109.57928 77.81242999999998 106.70073 74.93387999999997 103.14988 74.93387999999997 C 99.59903 74.93387999999997 96.72048 77.81236999999997 96.72048 81.36327999999997 C 96.72048 82.01070999999997 96.81842999999999 82.63477999999998 96.99642 83.22412999999997 C 94.10511 86.08457999999997 92.54069 89.85944999999998 92.54069 94.12752999999998 C 92.55006 95.64323999999998 92.77301 131.33356999999998 93.08682999999999 138.39968999999996 C 93.39035 145.23348999999996 98.18290999999999 151.12582999999995 104.74128999999999 152.72865999999996 C 106.02560999999999 153.04341999999997 107.31461999999999 153.38533999999996 108.57270999999999 153.74412999999996 C 108.74881999999998 153.79471999999996 108.92587999999999 153.81906999999995 109.10011999999999 153.81906999999995 C 109.93478999999999 153.81906999999995 110.70294999999999 153.26917999999995 110.94369999999999 152.42607999999996 C 111.23504 151.40779999999995 110.64487 150.34548999999996 109.62565 150.05508999999995 Z M 107.08698 100.16131 L 107.08698 134.63758 C 107.08698 135.69708000000003 107.94601 136.55610000000001 109.0055 136.55610000000001 C 110.06499 136.55610000000001 110.92402 135.69707000000002 110.92402 134.63758 L 110.92402 100.16131000000001 C 110.92402 99.10181000000001 110.06499 98.24279000000001 109.0055 98.24279000000001 C 107.94601 98.24279000000001 107.08698 99.10182000000002 107.08698 100.16131000000001 Z M 104.5301 209.98761 C 102.69741 209.98761 101.04792 210.75823 99.87677000000001 211.98851 C 91.60870000000001 207.97030999999998 81.90947 206.56884 71.97089000000001 208.03699999999998 L 69.30201000000001 208.30304999999998 C 66.26216000000001 208.60843999999997 62.47945000000001 208.98783999999998 58.69487000000001 209.24826 C 49.09289000000001 209.90588 40.87078000000001 202.90533 39.95555000000001 193.30615999999998 C 38.77345000000001 180.91532999999998 37.52332000000001 164.34142999999997 37.92057000000001 152.93058999999997 C 40.493200000000016 152.09017999999998 42.353470000000016 149.67451999999997 42.353470000000016 146.82120999999998 C 42.353470000000016 143.27034999999998 39.47492000000002 140.39181 35.924070000000015 140.39181 C 32.37322000000001 140.39181 29.494670000000013 143.27035999999998 29.494670000000013 146.82120999999998 C 29.494670000000013 149.73130999999998 31.429290000000012 152.18689999999998 34.08167000000002 152.97941999999998 C 33.698180000000015 164.61198999999996 34.94954000000002 181.23658999999998 36.13538000000002 193.66962999999998 C 37.25015000000002 205.35593999999998 47.25120000000002 213.88438 58.95906000000002 213.07593999999997 C 62.802660000000024 212.81176999999997 66.61816000000002 212.42862999999997 69.68330000000002 212.12135999999998 L 72.44118000000002 211.84407 C 81.67624000000002 210.48157999999998 90.60866000000001 211.75548999999998 98.18398000000002 215.43151999999998 C 98.13433000000002 215.75359999999998 98.10072000000002 216.081 98.10072000000002 216.41700999999998 C 98.10072000000002 219.96792999999997 100.97927000000003 222.84646999999998 104.53012000000003 222.84646999999998 C 108.08097000000002 222.84646999999998 110.95952000000003 219.96792 110.95952000000003 216.41700999999998 C 110.95952000000003 212.86609999999996 108.08097000000002 209.98761 104.53012000000003 209.98761 Z M 86.73786 151.50686 C 86.73786 147.956 83.85931 145.07746 80.30846 145.07746 C 76.75761 145.07746 73.87906 147.95601 73.87906 151.50686 C 73.87906 154.54401 75.98746 157.08285999999998 78.81881 157.75575999999998 C 79.22719 161.87500999999997 82.5017 165.07124 86.68863 165.38922 C 94.13789 165.95409999999998 101.46257 167.44639 108.45843 169.82487 C 108.66265000000001 169.89419 108.87155000000001 169.92792 109.07577 169.92792 C 109.87484 169.92792 110.62052 169.42487 110.89218000000001 168.6258 C 111.23317000000002 167.62251 110.69639000000001 166.53304 109.69310000000002 166.19205 C 102.39185000000002 163.70959 94.74961000000002 162.15266 86.97903000000002 161.56342999999998 C 84.70611000000002 161.39041999999998 82.93138000000002 159.6897 82.65744000000002 157.48727 C 85.04511000000002 156.5485 86.73787000000002 154.22775 86.73787000000002 151.50687 Z M 73.92969 223.29993 C 70.8046 223.31211 66.18721 223.68401 60.20307 224.40626999999998 C 51.25028 225.48262999999997 42.47547 222.94677 35.50022 217.25865 C 28.56337 211.60144 24.33757 203.57512 23.601259999999996 194.65793 C 22.097729999999995 176.46381 21.335189999999997 160.97979999999998 21.335189999999997 148.63398999999998 L 21.335189999999997 147.04708999999997 L 19.776389999999996 146.74918999999997 C 19.713629999999995 146.73794999999998 13.435339999999997 145.52106999999998 8.044169999999996 142.98614999999998 C 6.1181499999999955 142.08029 4.683939999999996 140.38472 4.109699999999996 138.33410999999998 C 3.5335799999999957 136.27693999999997 3.880189999999996 134.07645 5.059589999999996 132.29469999999998 C 25.549749999999996 101.36413999999998 23.811089999999997 97.36128999999997 23.156279999999995 95.85494999999997 C 20.746889999999993 90.30640999999997 18.879889999999996 84.98831999999997 18.125779999999995 81.52785999999998 C 22.61671 44.78739 62.35954 3.83705 109.09637 3.83705 C 110.15587 3.83705 111.01489 2.97802 111.01489 1.91853 C 111.01489 0.8590400000000002 110.15585999999999 0.000010000000000065512 109.09637 0.000010000000000065512 C 86.30641999999999 0.000010000000000065512 63.55018999999999 9.30129 45.019769999999994 26.18953 C 27.742759999999993 41.93584 16.537949999999995 62.05691 14.277499999999993 81.39202 L 14.241899999999992 81.69928 L 14.303729999999993 82.00186000000001 C 15.063459999999992 85.6937 17.05691999999999 91.44459 19.624629999999993 97.34817000000001 C 20.048989999999993 98.94069 16.785249999999994 107.64711000000001 1.8614299999999915 130.17571 C 0.06468999999999148 132.88768000000002 -0.4617800000000085 136.23760000000001 0.4150399999999914 139.36926 C 1.2909299999999915 142.49435 3.4764299999999912 145.07799 6.412299999999991 146.45785999999998 C 10.604379999999992 148.42883999999998 15.16930999999999 149.63915999999998 17.50188999999999 150.18248999999997 C 17.56183999999999 162.36810999999997 18.327189999999987 177.42588999999998 19.77732999999999 194.97455999999997 C 20.600759999999987 204.94000999999997 25.323059999999987 213.90966999999998 33.074899999999985 220.23198999999997 C 40.865149999999986 226.58521999999996 50.66666999999998 229.41803999999996 60.66209999999998 228.21521999999996 C 66.59096999999998 227.49951999999996 71.10436999999999 227.13698999999997 74.07863999999998 227.13698999999997 L 74.37465999999998 227.11356999999998 C 91.80716999999999 224.39409999999998 102.75998999999997 236.49634999999998 107.20312999999999 248.73536 C 107.48603999999999 249.51476 108.22234999999999 250.00000999999997 109.00642999999998 250.00000999999997 C 109.22375999999998 250.00000999999997 109.44483999999999 249.96253999999996 109.66123999999998 249.88384999999997 C 110.65703999999998 249.52224999999996 111.17132999999998 248.42153999999996 110.80972999999997 247.42573999999996 C 103.26584999999997 226.64798999999996 86.84317999999998 221.34394999999995 73.92968999999997 223.29993999999996 Z" stroke-linecap="round" />
</g>
</g>
</g>
<g transform="matrix(1.9211538461538462 0 0 1.9211538461538462 639.548561102369 639.4498756034129)" id="text-logo"  >
<g style=""  paint-order="stroke"   >
		<g transform="matrix(1 0 0 1 0 0)" id="text-logo-path-0"  >
<path style="stroke: none; stroke-width: 0; stroke-dasharray: none; stroke-linecap: butt; stroke-dashoffset: 0; stroke-linejoin: miter; stroke-miterlimit: 4; fill: rgb(68,220,156); fill-rule: nonzero; opacity: 1;"  paint-order="stroke"  transform=" translate(-71.83000000000001, 10.805)" d="M 5.7 0 L 2.7 0 L 2.7 -21.01 L 5.7 -21.01 L 18.33 -4.72 L 18.33 -21.01 L 21.33 -21.01 L 21.33 0 L 18.33 0 L 5.7 -16.29 L 5.7 0 Z M 26.43 -2.89 L 26.43 -2.89 L 26.43 -15.6 L 29.3 -15.6 L 29.3 -2.89 L 37.34 -2.89 L 37.34 -15.6 L 40.22 -15.6 L 40.22 0 L 37.34 0 L 37.34 -2.64 Q 37.29 -2.09 37.05 -1.61 Q 36.8 -1.13 36.41 -0.77 Q 36.02 -0.41 35.52 -0.21 Q 35.02 0 34.47 0 L 34.47 0 L 29.3 0 Q 28.71 0 28.18 -0.23 Q 27.66 -0.45 27.27 -0.84 Q 26.88 -1.23 26.65 -1.76 Q 26.43 -2.29 26.43 -2.89 Z M 47.9 0 L 45.03 0 L 45.03 -21.61 L 47.9 -21.61 L 47.9 0 Z M 55.58 0 L 52.71 0 L 52.71 -21.61 L 55.58 -21.61 L 55.58 0 Z M 60.67 -3 L 60.67 -3 L 60.67 -18 Q 60.67 -18.62 60.91 -19.17 Q 61.14 -19.72 61.55 -20.12 Q 61.96 -20.52 62.51 -20.76 Q 63.06 -21.01 63.68 -21.01 L 63.68 -21.01 L 75.07 -21.01 Q 75.69 -21.01 76.24 -20.76 Q 76.79 -20.52 77.2 -20.12 Q 77.61 -19.72 77.84 -19.17 Q 78.08 -18.62 78.08 -18 L 78.08 -18 L 78.08 -15.29 L 75.07 -15.29 L 75.07 -18 L 63.68 -18 L 63.68 -3 L 75.07 -3 L 75.07 -5.7 L 78.08 -5.7 L 78.08 -3 Q 78.08 -2.39 77.84 -1.84 Q 77.61 -1.29 77.2 -0.88 Q 76.79 -0.47 76.24 -0.23 Q 75.69 0 75.07 0 L 75.07 0 L 63.68 0 Q 63.06 0 62.51 -0.23 Q 61.96 -0.47 61.55 -0.88 Q 61.14 -1.29 60.91 -1.84 Q 60.67 -2.39 60.67 -3 Z M 85.46 0 L 82.59 0 L 82.59 -21.61 L 85.46 -21.61 L 85.46 0 Z M 90.26 -2.89 L 90.26 -2.89 L 90.26 -12.71 Q 90.26 -13.32 90.49 -13.84 Q 90.72 -14.37 91.11 -14.76 Q 91.49 -15.15 92.02 -15.37 Q 92.55 -15.6 93.13 -15.6 L 93.13 -15.6 L 100.88 -15.6 Q 101.48 -15.6 102 -15.37 Q 102.52 -15.15 102.91 -14.76 Q 103.3 -14.37 103.53 -13.84 Q 103.75 -13.32 103.75 -12.71 L 103.75 -12.71 L 103.75 -2.89 Q 103.75 -2.29 103.53 -1.76 Q 103.3 -1.23 102.91 -0.84 Q 102.52 -0.45 102 -0.23 Q 101.48 0 100.88 0 L 100.88 0 L 93.13 0 Q 92.55 0 92.02 -0.23 Q 91.49 -0.45 91.11 -0.84 Q 90.72 -1.23 90.49 -1.76 Q 90.26 -2.29 90.26 -2.89 Z M 93.13 -12.71 L 93.13 -2.89 L 100.88 -2.89 L 100.88 -12.71 L 93.13 -12.71 Z M 108.56 -2.89 L 108.56 -2.89 L 108.56 -15.6 L 111.43 -15.6 L 111.43 -2.89 L 119.47 -2.89 L 119.47 -15.6 L 122.36 -15.6 L 122.36 0 L 119.47 0 L 119.47 -2.64 Q 119.43 -2.09 119.18 -1.61 Q 118.93 -1.13 118.54 -0.77 Q 118.15 -0.41 117.66 -0.21 Q 117.16 0 116.6 0 L 116.6 0 L 111.43 0 Q 110.84 0 110.32 -0.23 Q 109.79 -0.45 109.4 -0.84 Q 109.01 -1.23 108.79 -1.76 Q 108.56 -2.29 108.56 -2.89 Z M 127.16 -2.89 L 127.16 -2.89 L 127.16 -12.71 Q 127.16 -13.32 127.39 -13.84 Q 127.62 -14.37 128.01 -14.76 Q 128.39 -15.15 128.92 -15.37 Q 129.45 -15.6 130.03 -15.6 L 130.03 -15.6 L 138.08 -15.6 L 138.08 -21.61 L 140.96 -21.61 L 140.96 0 L 138.08 0 L 138.08 -2.64 Q 138.03 -2.09 137.78 -1.61 Q 137.53 -1.13 137.15 -0.77 Q 136.76 -0.41 136.26 -0.21 Q 135.76 0 135.21 0 L 135.21 0 L 130.03 0 Q 129.45 0 128.92 -0.23 Q 128.39 -0.45 128.01 -0.84 Q 127.62 -1.23 127.39 -1.76 Q 127.16 -2.29 127.16 -2.89 Z M 130.03 -12.71 L 130.03 -2.89 L 138.08 -2.89 L 138.08 -12.71 L 130.03 -12.71 Z" stroke-linecap="round" />
</g>
</g>
</g>
</svg>